<?xml version="1.0" encoding="utf-8"?><!DOCTYPE svg PUBLIC "-//W3C//DTD SVG 1.1//EN" "http://www.w3.org/Graphics/SVG/1.1/DTD/svg11.dtd"><svg viewBox="0 0 20 20" xmlns="http://www.w3.org/2000/svg" xmlns:xlink="http://www.w3.org/1999/xlink"><style>:root>svg{display:none}:root>svg:target{display:block}</style><svg viewBox="0 0 20 20" id="alarm" xmlns="http://www.w3.org/2000/svg"><path d="M16.8 15.101A4.466 4.466 0 0115 11.5v-3a5.51 5.51 0 00-4-5.292V2.5c0-.827-.673-1.5-1.5-1.5S8 1.673 8 2.5v.708A5.51 5.51 0 004 8.5v3a4.468 4.468 0 01-1.8 3.601.5.5 0 00.3.9h4.55a2.503 2.503 0 002.449 3 2.503 2.503 0 002.45-3h4.55a.5.5 0 00.3-.9zM9 2.5a.5.5 0 011 0v.523a5.508 5.508 0 00-1 0V2.5zm2 14c0 .827-.673 1.5-1.5 1.5a1.502 1.502 0 01-1.414-2h2.828c.056.16.086.329.086.5zM3.742 15c.255-.309.477-.646.659-1.001A5.435 5.435 0 005 11.5v-3C5 6.019 7.019 4 9.5 4S14 6.019 14 8.5v3a5.448 5.448 0 001.258 3.5H3.741z"/></svg><svg viewBox="0 0 20 20" id="cart" xmlns="http://www.w3.org/2000/svg"><path d="M8 20c-1.103 0-2-.897-2-2s.897-2 2-2 2 .897 2 2-.897 2-2 2zm0-3c-.551 0-1 .449-1 1s.449 1 1 1 1-.449 1-1-.449-1-1-1zM15 20c-1.103 0-2-.897-2-2s.897-2 2-2 2 .897 2 2-.897 2-2 2zm0-3c-.551 0-1 .449-1 1s.449 1 1 1 1-.449 1-1-.449-1-1-1zM17.539 4.467A1.351 1.351 0 0016.5 4H4.257l-.099-.596A1.718 1.718 0 002.5 2h-1a.5.5 0 000 1h1c.307 0 .621.266.671.569l1.671 10.027A1.718 1.718 0 006.5 15h10a.5.5 0 000-1h-10a.724.724 0 01-.671-.569l-.247-1.48 9.965-.867c.775-.067 1.483-.721 1.611-1.489l.671-4.027a1.354 1.354 0 00-.289-1.102zm-.697.937l-.671 4.027c-.053.316-.391.629-.711.657l-10.043.873-.994-5.962h12.076c.117 0 .215.04.276.113s.085.176.066.291z"/></svg><svg viewBox="0 0 20 20" id="envelope" xmlns="http://www.w3.org/2000/svg"><path d="M17.5 6h-16C.673 6 0 6.673 0 7.5v9c0 .827.673 1.5 1.5 1.5h16c.827 0 1.5-.673 1.5-1.5v-9c0-.827-.673-1.5-1.5-1.5zm0 1c.03 0 .058.003.087.008l-7.532 5.021c-.29.193-.819.193-1.109 0L1.414 7.008A.494.494 0 011.501 7h16zm0 10h-16a.5.5 0 01-.5-.5V7.934l7.391 4.927c.311.207.71.311 1.109.311s.798-.104 1.109-.311L18 7.934V16.5a.5.5 0 01-.5.5z"/></svg><svg viewBox="0 0 20 20" id="magnifier" xmlns="http://www.w3.org/2000/svg"><path d="M18.869 19.162l-5.943-6.484A7.448 7.448 0 0015.001 7.5c0-2.003-.78-3.887-2.197-5.303S9.504 0 7.501 0 3.614.78 2.198 2.197.001 5.497.001 7.5s.78 3.887 2.197 5.303S5.498 15 7.501 15a7.441 7.441 0 004.688-1.645l5.943 6.483a.497.497 0 00.707.031.5.5 0 00.031-.706zM1 7.5C1 3.916 3.916 1 7.5 1S14 3.916 14 7.5 11.084 14 7.5 14 1 11.084 1 7.5z"/></svg></svg>